<svg width="23" height="30" viewBox="0 0 23 30" fill="none" xmlns="http://www.w3.org/2000/svg">
<g id="Group">
<g id="Group_2">
<path id="Vector" fill-rule="evenodd" clip-rule="evenodd" d="M9.49285 4.88824C8.65632 5.13267 7.87501 5.51533 7.33079 6.04494C5.84496 7.49263 5.24013 9.45393 5.24013 12.9895C5.24013 15.5095 3.91191 17.8957 2.95548 19.4408C2.74803 19.7784 2.68337 20.0999 2.69549 20.2935C2.70088 20.3808 2.71974 20.4215 2.72782 20.436C2.73321 20.4462 2.74938 20.4739 2.81404 20.5117C3.74622 21.05 5.15257 21.4429 6.77849 21.6917C8.34351 21.9185 9.92095 22.0308 11.5 22.0278C11.8573 22.0278 12.1999 22.1811 12.4525 22.4539C12.7052 22.7268 12.8471 23.0969 12.8471 23.4828C12.8471 23.8686 12.7052 24.2387 12.4525 24.5116C12.1999 24.7844 11.8573 24.9377 11.5 24.9377C9.9805 24.9377 8.15386 24.8431 6.39996 24.574C4.67301 24.3077 2.89352 23.8567 1.54374 23.0783C0.550946 22.505 0.0713856 21.5069 0.00807288 20.4899C-0.0538927 19.5311 0.246506 18.5839 0.715289 17.8258C1.68114 16.2632 2.54597 14.5391 2.54597 12.9895C2.54597 9.11783 3.20873 6.14097 5.52705 3.88431C6.50369 2.93276 7.73087 2.39005 8.78564 2.08014C9.6701 1.81522 10.5823 1.67343 11.5 1.6582C11.8573 1.6582 12.1999 1.81149 12.4525 2.08435C12.7052 2.35721 12.8471 2.72729 12.8471 3.11317C12.8471 3.49906 12.7052 3.86913 12.4525 4.14199C12.1999 4.41485 11.8573 4.56814 11.5 4.56814C11.0878 4.56814 10.32 4.6438 9.49285 4.88824Z" fill="#003C61"/>
<path id="Vector_2" fill-rule="evenodd" clip-rule="evenodd" d="M13.5066 4.88824C14.3431 5.13267 15.1244 5.51533 15.6686 6.04494C17.1545 7.49263 17.7593 9.45393 17.7593 12.9895C17.7593 15.5095 19.0875 17.8957 20.0439 19.4408C20.2514 19.7784 20.3161 20.0999 20.3039 20.2935C20.3046 20.3432 20.2935 20.3923 20.2716 20.436C20.2662 20.4462 20.25 20.4739 20.1854 20.5117C19.2532 21.05 17.8469 21.4429 16.2209 21.6917C14.6559 21.9185 13.0785 22.0308 11.4994 22.0278C11.1422 22.0278 10.7995 22.1811 10.5469 22.4539C10.2943 22.7268 10.1523 23.0969 10.1523 23.4828C10.1523 23.8686 10.2943 24.2387 10.5469 24.5116C10.7995 24.7844 11.1422 24.9377 11.4994 24.9377C13.0189 24.9377 14.8442 24.8431 16.5995 24.574C18.3264 24.3077 20.1059 23.8567 21.4557 23.0783C22.4485 22.505 22.928 21.5069 22.9913 20.4899C23.0533 19.5311 22.7529 18.5839 22.2841 17.8258C21.3183 16.2632 20.4535 14.5391 20.4535 12.9895C20.4535 9.11783 19.7907 6.14097 17.4724 3.88431C16.4957 2.93276 15.2685 2.39005 14.2138 2.08014C13.3293 1.81522 12.4172 1.67343 11.4994 1.6582C11.1422 1.6582 10.7995 1.81149 10.5469 2.08435C10.2943 2.35721 10.1523 2.72729 10.1523 3.11317C10.1523 3.49906 10.2943 3.86913 10.5469 4.14199C10.7995 4.41485 11.1422 4.56814 11.4994 4.56814C11.9116 4.56814 12.6795 4.6438 13.5066 4.88824Z" fill="#003C61"/>
<path id="Vector_3" d="M15.0655 2.64747C15.0655 3.65868 13.1849 2.70858 11.6978 2.70858C10.2106 2.70858 8.33008 3.65868 8.33008 2.64602C8.33008 1.63482 9.67716 0.203125 11.6978 0.203125C13.7184 0.203125 15.0655 1.63482 15.0655 2.64747Z" fill="#003C61"/>
<path id="Vector_4" fill-rule="evenodd" clip-rule="evenodd" d="M8.80549 23.4824C8.80549 24.2542 9.08933 24.9943 9.59459 25.5401C10.0998 26.0858 10.7851 26.3924 11.4996 26.3924C12.2142 26.3924 12.8994 26.0858 13.4047 25.5401C13.91 24.9943 14.1938 24.2542 14.1938 23.4824H16.888C16.888 25.0259 16.3203 26.5063 15.3098 27.5977C14.2993 28.6891 12.9287 29.3023 11.4996 29.3023C10.0706 29.3023 8.70003 28.6891 7.68953 27.5977C6.67902 26.5063 6.11133 25.0259 6.11133 23.4824H8.80549Z" fill="#003C61"/>
</g>
</g>
</svg>
